<?xml version="1.0" standalone="no"?>
<svg viewBox="0 0 200 200" xmlns="http://www.w3.org/2000/svg">
  <path fill="#FF0066" d="M31.9,-61C41.1,-49.9,48.2,-40.9,55.1,-31.1C62,-21.3,68.6,-10.6,73.1,2.6C77.5,15.8,79.7,31.5,75.1,45.3C70.5,59,59,70.7,45.4,75C31.7,79.3,15.9,76.1,1.7,73.2C-12.5,70.3,-25.1,67.7,-36.7,62.3C-48.3,56.8,-59.1,48.6,-66.1,37.7C-73.2,26.9,-76.5,13.4,-76.5,0C-76.6,-13.5,-73.4,-27,-66.1,-37.4C-58.8,-47.8,-47.4,-55,-35.7,-64.7C-24,-74.3,-12,-86.4,-0.3,-85.8C11.3,-85.3,22.7,-72.1,31.9,-61Z" transform="translate(100 100)" />
</svg>
